<svg id="Layer_1" data-name="Layer 1" xmlns="http://www.w3.org/2000/svg" xmlns:xlink="http://www.w3.org/1999/xlink" viewBox="0 0 834.06 110.15"><defs><style>.cls-1{fill:url(#linear-gradient);}.cls-2{fill:url(#linear-gradient-2);}.cls-3{fill:url(#linear-gradient-3);}.cls-4{fill:url(#linear-gradient-4);}.cls-5{fill:url(#linear-gradient-5);}.cls-6{fill:url(#linear-gradient-6);}.cls-7{fill:url(#linear-gradient-7);}.cls-8{fill:url(#linear-gradient-8);}</style><linearGradient id="linear-gradient" x1="230.59" y1="549.88" x2="230.59" y2="444.93" gradientUnits="userSpaceOnUse"><stop offset="0.03" stop-color="#398b4b"/><stop offset="1" stop-color="#2ecc2e"/></linearGradient><linearGradient id="linear-gradient-2" x1="452.91" y1="550.7" x2="452.91" y2="479.45" xlink:href="#linear-gradient"/><linearGradient id="linear-gradient-3" x1="611.48" y1="549.09" x2="611.48" y2="479.06" xlink:href="#linear-gradient"/><linearGradient id="linear-gradient-4" x1="673.75" y1="555.07" x2="673.75" y2="478.11" xlink:href="#linear-gradient"/><linearGradient id="linear-gradient-5" x1="724.66" y1="549.14" x2="724.66" y2="479.16" xlink:href="#linear-gradient"/><linearGradient id="linear-gradient-6" x1="783.02" y1="550.02" x2="783.02" y2="480.57" xlink:href="#linear-gradient"/><linearGradient id="linear-gradient-7" x1="865.92" y1="549.43" x2="865.92" y2="480.28" xlink:href="#linear-gradient"/><linearGradient id="linear-gradient-8" x1="534.03" y1="549.8" x2="534.03" y2="477.57" xlink:href="#linear-gradient"/></defs><path class="cls-1" d="M179,547.54a1.28,1.28,0,0,1-1.42,1.46q-2.1,0-6.33-.22c-2.81-.15-4.94-.22-6.37-.22s-3.34.07-6,.2-4.7.19-6,.19c-1.08,0-1.61-.47-1.61-1.41q0-6,.49-18t.48-18q0-5-.46-15.06t-.46-15q0-1.08,1.17-1.08,2.15,0,6.47.2t6.52.19q2.06,0,6.15-.19c2.74-.13,4.77-.2,6.11-.2.84,0,1.27.39,1.27,1.18q0,5-.47,15t-.46,15q0,6,.49,18T179,547.54Zm70.22-65.93c0,2.44-.08,6.12-.24,11.06s-.25,8.62-.25,11.06q0,1-4.29,11.23-3.48,8.35-5,11.77-2.94,6.4-6.79,13.92-1.27,2.29-3.52,6.89c-.39,1-.88,1.46-1.46,1.46-1.44,0-3.58,0-6.45-.12s-5-.12-6.45-.12q-1.41,0-4.32.09c-1.94.07-3.38.1-4.32.1-.62,0-1.16-.47-1.61-1.41Q200.87,540.4,194,526q-8.21-18.41-8.21-20.51,0-3.85.27-11.6t.27-11.6c0-1.2.37-1.81,1.12-1.81q2.06,0,6.18.2t6.18.19q2.1,0,6.3-.22c2.8-.14,4.88-.22,6.25-.22.52,0,.78.35.78,1q0,4.15-.56,12.48t-.56,12.48a17.13,17.13,0,0,0,1.8,6.3c1,2,2,4.05,3,6.1a54.23,54.23,0,0,0,3-6.79,35.79,35.79,0,0,0,2-7.13c0-1.69.08-4.21.15-7.57q.34-14.89.34-15.33c0-1,.25-1.57.73-1.57,1.4,0,3.5.08,6.28.22s4.87.22,6.28.22,3.41-.06,6.15-.19,4.78-.2,6.15-.2C248.77,480.43,249.17,480.82,249.17,481.61Zm60.51,47.76a24.32,24.32,0,0,1-.63,4.74c-.59,2.8-.91,4.38-1,4.73-.26,2.25-.8,5.55-1.61,9.92-.16.75-.77,1.12-1.81,1.12a8.62,8.62,0,0,1-1.36-.15,176.82,176.82,0,0,0-22.81-1.17q-3.92,0-11.67.2t-11.63.19c-1.07,0-1.61-.47-1.61-1.41q0-5.47.59-16.44t.58-16.43q0-5.56-.53-20.76-.15-3.9-.54-11.67l0-.68c-.07-.75.34-1.13,1.22-1.13q3.81,0,11.45.2t11.5.19q3.87,0,11.68-.19t11.72-.2a3,3,0,0,1,3.27,2.49c.16.66.49,3.51,1,8.58s.73,7.95.73,8.66-.34,1-1,1c-1.75,0-4.41-.18-8-.54s-6.22-.53-8-.53c-2.9,0-4.56,0-5,.05-2.54.22-3.81.91-3.81,2.05,0,1.56,1.52,2.54,4.54,2.93.85.09,2.93.14,6.26.14a76.32,76.32,0,0,0,7.86-.39c3.32-.32,4.67-.49,4-.49.85,0,1.27.48,1.27,1.42a29.36,29.36,0,0,1-.44,4.2q-.59,3.46-.63,4.35-.65,6.54-.64,9.32c0,.72-.5,1.08-1.51,1.08.29,0-1.12-.2-4.25-.59a102,102,0,0,0-12.06-.63q-4.45,0-4.45,2.44a2.23,2.23,0,0,0,.59,1.71q1.41,1.17,14.7,1.17c1.2,0,3-.1,5.4-.32s4.19-.31,5.39-.31C309.28,528.2,309.68,528.59,309.68,529.37Zm62.47,6.2q-6.06-12.3-6.06-12.89c0-.52.39-1.06,1.17-1.61q5.48-3.92,7.55-8.21t2.07-11.33q0-10.84-8.64-16.55-7.42-4.85-18.85-4.84-5.37,0-16.12.15t-16.07.14h-1.85a.94.94,0,0,0-.93,1.13l.05.68q1.36,18.47,1.37,32.43,0,5.48-.59,16.43t-.59,16.44q0,1.41,1.62,1.41c1.23,0,3.1-.06,5.59-.19s4.35-.2,5.59-.2a100.37,100.37,0,0,1,12.7.59,8.06,8.06,0,0,0,1.22.14c.65,0,1-.37,1-1.12,0-2.08-.21-5.34-.65-9.77s-.66-7.74-.66-10c0-1.07.14-1.61.44-1.61s.81.7,1.27,2.1q3,8.16,4.59,12.16c1.1,3,2,5.18,2.54,6.64a2.13,2.13,0,0,0,2.19,1.22q2,0,6-.19t6.08-.2q2.08,0,6.32.2t6.37.19c.88,0,1.32-.18,1.32-.53S376.18,543.78,372.15,535.57Zm-30.8-23.49c-1.65,0-2.47-.3-2.47-.91s0-1.5-.12-2.71-.12-2.11-.12-2.71q0-7.54,2.47-7.54,10,0,10,6.81Q351.12,512.09,341.35,512.08ZM140.71,535.57q-6.06-12.3-6.06-12.89c0-.52.39-1.06,1.17-1.61q5.48-3.92,7.55-8.21t2.07-11.33c0-7.23-2.51-12.49-8.27-16.3-.07-.05-4.06,4.13-8.66,4.41,3.63-2.86,9.8-8.75,11.73-12.39a17.12,17.12,0,0,0,2-11.61,22,22,0,0,0-.81-2.92l-1-3.09c-.22-.75-.45-1.5-.66-2.26l-4.92-12.44.53,2.16s2.86,15.25-7.75,22.06c-5.62,3.61-6.85,7.87-6.77,11.07-.92-.05-1.87-.08-2.84-.08q-4.59,0-13.12.11c.1-3.21-1.12-7.48-6.77-11.1-10.6-6.81-7.74-22.06-7.74-22.06l.53-2.16-6.64,16.78c-3.13,7.93.53,14.25,3.4,18.72,0,0,6,6.94,8,8.79-5,.28-10-8-10.69-8.79h-1a.94.94,0,0,0-.93,1.13l0,.68q1.36,18.47,1.37,32.43,0,5.48-.59,16.43t-.59,16.44q0,1.41,1.62,1.41c1.23,0,3.1-.06,5.59-.19s4.35-.2,5.59-.2a100.37,100.37,0,0,1,12.7.59,8.06,8.06,0,0,0,1.22.14c.65,0,1-.37,1-1.12,0-2.08-.21-5.34-.65-9.77s-.66-7.74-.66-10c0-1.07.14-1.61.44-1.61s.81.7,1.27,2.1q3,8.16,4.59,12.16c1.1,3,1.95,5.18,2.54,6.64a2.13,2.13,0,0,0,2.19,1.22q2,0,6-.19t6.09-.2q2.08,0,6.32.2t6.37.19c.88,0,1.32-.18,1.32-.53S144.74,543.78,140.71,535.57Zm-30.17-23.49c-1.65,0-2.47-.3-2.47-.91s0-1.5-.12-2.71-.12-2.11-.12-2.71q0-7.54,2.47-7.54,10,0,10,6.81Q120.3,512.09,110.54,512.08Z" transform="translate(-82.97 -444.93)"/><path class="cls-2" d="M491.32,547.68c0,.94-.54,1.41-1.61,1.41-1.27,0-3.19-.06-5.74-.19s-4.49-.2-5.79-.2-3.2.07-5.79.2-4.51.19-5.78.19c-1,0-1.52-.6-1.52-1.81,0-2.18.1-5.47.3-9.89s.29-7.7.29-9.88c0-1-.1-1.42-.29-1.42q-.93,0-6.23,12.31t-6.28,12.3q-1.36,0-6.44-12.3t-6.06-12.31c-.19,0-.29.47-.29,1.42q0,3.27.29,9.88c.2,4.42.29,7.71.29,9.89,0,1.21-.48,1.81-1.46,1.81q-1.95,0-5.81-.19c-2.58-.13-4.51-.2-5.81-.2s-3.19.07-5.74.2-4.47.19-5.74.19c-1.08,0-1.61-.47-1.61-1.41q0-5.32.49-16t.48-16q0-5.67-.46-17t-.46-17q0-1.08,2.19-1.08c1.08,0,2.69-.05,4.84-.14s3.76-.15,4.83-.15a54,54,0,0,0,5.52-.42c2.48-.27,4.32-.41,5.52-.41.29,0,.88.72,1.76,2.15q5.32,8.59,11.38,19.88,2.15,4,2.49,4,.74,0,2.34-3.71a91.85,91.85,0,0,1,5.18-9.92q5-8.34,5.71-9.67c.75-1.39,1.42-2.1,2-2.1,1.2,0,3,.07,5.51.2s4.33.2,5.57.2,3-.11,5.35-.32,4.14-.32,5.35-.32c.78,0,1.17.37,1.17,1.12,0,3.85-.16,9.62-.49,17.34s-.49,13.51-.49,17.39q0,5.32.52,16T491.32,547.68Z" transform="translate(-82.97 -444.93)"/><path class="cls-3" d="M646,481.89q0,5.57-.54,16.78T645,515.49l-.1,32.48c0,.75-.57,1.12-1.71,1.12s-2.68-.06-4.81-.19-3.73-.2-4.81-.2-2.78.07-5,.2-3.94.19-5.08.19c-.55,0-1.22-.54-2-1.61Q603.69,523,602.23,523c-.46,0-.69.48-.69,1.42q0,3.81.3,11.45c.19,5.1.29,8.91.29,11.45,0,1.21-.51,1.81-1.51,1.81-1.18,0-2.94-.06-5.3-.19s-4.13-.2-5.3-.2-3.18.07-5.74.2-4.47.19-5.74.19c-1.07,0-1.61-.47-1.61-1.41q0-5.32.49-16t.49-16q0-5.57-.47-16.68T577,482.38c0-.72.67-1.07,2-1.07s4.64-.28,9.52-.83q1-.11,5.23-.84a30.36,30.36,0,0,1,5.18-.58c.45,0,1.12.7,2,2.1q.83,1.32,7.86,11.18,3.76,5.52,11.87,16c.32-.23.49-1.28.49-3.17q0-3.76-.64-11.36t-.63-11.35c0-1.27.32-1.91,1-1.91q1.95,0,5.86.15t5.86.15q2.1,0,6.3-.15t6.3-.15C645.74,480.57,646,481,646,481.89Z" transform="translate(-82.97 -444.93)"/><path class="cls-4" d="M693.9,497.91a33.28,33.28,0,0,1-4.18,3c-2.78,1.89-4.18,3.87-4.18,6q0,2.19,3.76,8.62t3.77,11.55a21.06,21.06,0,0,1-2.93,11.13q-3.09,5.13-11.63,10.11c-4.78,2.77-4.75,3.43-9.6,4.87-.43.09-5.6,1.58-5.83,1.58-.39,0-11.32.71-11.67,0-.26-.49,0,0,0-10.93,0-6.89,0-9.62,0-9.68,0-.23,1.07-1,3.22-2.25a32.75,32.75,0,0,0,6-4.25q3.23-3.12,3.22-6.54a10.9,10.9,0,0,0-2.15-6.16q-4-5.66-4-5.76a19.12,19.12,0,0,1-2.15-9.23q0-9.07,8.59-15a39,39,0,0,1,17-6.25c1.2-.16,1.71-.25,1.51-.25.17,0,12.9-.71,13.19,0,1.44,3.52-2,19.49-2.1,19.05A.86.86,0,0,1,693.9,497.91Z" transform="translate(-82.97 -444.93)"/><path class="cls-5" d="M751.13,500.35c0,.65-.36,1-1.07,1q1.22,0-12.21-.73-.2,8.59-.2,11.08,0,6,.52,18t.51,18a1.3,1.3,0,0,1-1.47,1.46c-1.36,0-3.45-.07-6.25-.22s-4.9-.22-6.3-.22-3.33.07-6,.2-4.68.19-6,.19c-1.08,0-1.61-.47-1.61-1.41q0-6,.51-18t.51-18q0-2.39-.19-10.79-4.3.28-12.9,1.07c-.52-.22-.78-.37-.78-.44,0-.35.28-2,.83-5q.93-4.83,1-5.66c.1-3,.42-6.6,1-10.8.09-.26.34-.39.73-.39a7.3,7.3,0,0,1,.78.1,224.08,224.08,0,0,0,24,1.08q4.35,0,16.31-1.13,6-.58,6.4-.58c1,0,1.46.24,1.46.73,0,1.17-.08,2.94-.24,5.3s-.25,4.12-.25,5.3a41.2,41.2,0,0,0,.44,4.93A39.18,39.18,0,0,1,751.13,500.35Z" transform="translate(-82.97 -444.93)"/><path class="cls-6" d="M810.08,529.51a23.54,23.54,0,0,1-.64,4.73c-.58,2.81-.91,4.38-1,4.74-.26,2.25-.8,5.55-1.61,9.92-.17.74-.77,1.12-1.81,1.12a8.73,8.73,0,0,1-1.37-.15,176.61,176.61,0,0,0-22.81-1.17q-3.9,0-11.67.2c-5.17.13-9.05.19-11.62.19-1.07,0-1.61-.47-1.61-1.41q0-5.48.58-16.44t.59-16.43q0-5.56-.54-20.76-.14-3.9-.53-11.67l-.05-.68c-.07-.75.34-1.13,1.22-1.13,2.54,0,6.35.07,11.45.2s8.93.19,11.5.19,6.46-.06,11.67-.19,9.12-.2,11.72-.2a3,3,0,0,1,3.28,2.49c.16.66.48,3.51,1,8.57s.74,8,.74,8.67-.35,1-1,1q-2.64,0-8-.54c-3.55-.36-6.22-.53-8-.53-2.9,0-4.56,0-5,0-2.54.23-3.81.92-3.81,2.06,0,1.56,1.51,2.53,4.54,2.93q1.27.13,6.25.14a76.37,76.37,0,0,0,7.87-.39c3.32-.32,4.67-.49,4-.49.85,0,1.27.48,1.27,1.42a30.93,30.93,0,0,1-.44,4.2c-.39,2.31-.6,3.76-.64,4.35q-.63,6.54-.63,9.32c0,.72-.51,1.08-1.51,1.08.29,0-1.13-.2-4.25-.59a102.13,102.13,0,0,0-12.07-.63q-4.44,0-4.44,2.44a2.19,2.19,0,0,0,.59,1.71q1.41,1.17,14.7,1.17c1.2,0,3-.1,5.39-.32s4.19-.31,5.4-.31C809.67,528.34,810.08,528.73,810.08,529.51Z" transform="translate(-82.97 -444.93)"/><path class="cls-7" d="M916.94,521.49a14.67,14.67,0,0,0-1.37-4.7c-.13-.26-.29-.51-.44-.76a8.72,8.72,0,0,1-.16.89,9.7,9.7,0,0,1-2.55,4.58c-2.39,2.45-5.25,3.76-7.79,5.28a33.34,33.34,0,0,0-3.66,2.38,17.73,17.73,0,0,0-1.6,1.41c-.51.52-1,1.06-1.45,1.62a6.82,6.82,0,0,0-1.6,3.28,4.82,4.82,0,0,0,1.28,4.16,1.29,1.29,0,0,1-1.85-.81c-.82.15-1.28.33-2.06.43a25.71,25.71,0,0,1-26.93-15.65c-.1-.25-.18-.45-.22-.58s0-.16,0-.2c0-.52.39-1.06,1.17-1.61q5.46-3.91,7.54-8.21t2.08-11.33q0-10.85-8.64-16.56-7.42-4.83-18.86-4.83-5.37,0-16.11.15t-16.07.14h-1.86a.94.94,0,0,0-.92,1.13l0,.68q1.36,18.47,1.36,32.43,0,5.46-.58,16.43t-.59,16.44c0,.94.54,1.41,1.61,1.41,1.24,0,3.1-.06,5.59-.19s4.36-.2,5.6-.2a100.19,100.19,0,0,1,12.69.59,10.09,10.09,0,0,0,1.22.14c.66,0,1-.37,1-1.12q0-3.12-.66-9.77c-.44-4.42-.66-7.75-.66-10,0-1.07.15-1.61.44-1.61s.82.7,1.27,2.1q3,8.16,4.59,12.16c1.11,3,2,5.18,2.54,6.64a2.16,2.16,0,0,0,2.2,1.22c1.34,0,3.29.26,6,.13s5.27.09,6.63.09,4-.19,5-.17c10.84.26,20.28-1.71,29.4-8.92,11.32-2,14.86-8.56,15.81-11,.27-.7.56-1.39.86-2.07a11.7,11.7,0,0,0,.92-4.41C917,522.3,917,521.89,916.94,521.49Zm-74.56-9.27c-1.65,0-2.48-.3-2.48-.91s0-1.5-.12-2.71-.12-2.11-.12-2.71c0-5,.83-7.54,2.47-7.54q10,0,10,6.81Q852.14,512.23,842.38,512.22Z" transform="translate(-82.97 -444.93)"/><path class="cls-8" d="M534,477.57a36.12,36.12,0,1,0,36.11,36.12A36.12,36.12,0,0,0,534,477.57Zm17.27,38.25a3.44,3.44,0,0,1-1.59,0,4.32,4.32,0,0,1-1.32-.48,7.66,7.66,0,0,1-1.8-1.37,9.07,9.07,0,0,1-.8-.86c0,.17,0,.35,0,.53a11.82,11.82,0,1,1-4.12-8.94l-.06-.26.73.69c.88.84,1.71,1.68,2.51,2.5.55.58,1.08,1.12,1.61,1.64a24.4,24.4,0,0,0,2.22,2,5.3,5.3,0,0,0,.81.52l.14.09.05,0,.06,0h0l0-.1.1-.15a4.32,4.32,0,0,0,.44-.89,11,11,0,0,0,.53-2.51c.13-1.17.17-2.41.22-3.72v-.1l.06-1.52,0-.89.48.74a14.59,14.59,0,0,1,1.29,2.44h0a15,15,0,0,1,1,3.43,10,10,0,0,1,0,3.66,6.39,6.39,0,0,1-.7,1.85A3.31,3.31,0,0,1,551.3,515.82Zm15.92,2.84a3.13,3.13,0,0,1-1.84,1.57,3.36,3.36,0,0,1-1.52.06A4.5,4.5,0,0,1,563,520a11.48,11.48,0,0,1,.47,1.88,8.15,8.15,0,0,1,0,3,5.43,5.43,0,0,1-.57,1.52,2.75,2.75,0,0,1-1.6,1.36,2.55,2.55,0,0,1-.74.1,3.55,3.55,0,0,1-.57,0,3.86,3.86,0,0,1-1.1-.4,6.48,6.48,0,0,1-1.49-1.14,12.67,12.67,0,0,1-1.91-2.47,17.55,17.55,0,0,1-1.93-4.43l-.27-1,.75.72c.66.63,1.29,1.27,1.89,1.89l.07.08c.45.45.88.9,1.32,1.33a19.32,19.32,0,0,0,1.84,1.67,3.39,3.39,0,0,0,.73.46l.08,0,.06,0h0v-.07l.05-.09a3.54,3.54,0,0,0,.39-.78,9,9,0,0,0,.44-2.08c.09-.87.13-1.78.18-2.87l-.06-.06-.15-.14a14,14,0,0,1-2.21-2.86,20,20,0,0,1-2.28-5.28l-.25-1,.73.69c.83.79,1.6,1.58,2.35,2.35l0,0c.52.53,1,1,1.53,1.54a21.24,21.24,0,0,0,2.12,1.93,4.29,4.29,0,0,0,.76.49l.15.1,0,0,.07,0h0v-.1l.09-.14a4,4,0,0,0,.42-.85,10.08,10.08,0,0,0,.5-2.4c.13-1.12.17-2.3.22-3.55v-.11c0-.46,0-.93.06-1.42l0-.89.49.75a14.42,14.42,0,0,1,1.21,2.3,14.72,14.72,0,0,1,.95,3.28,9.6,9.6,0,0,1,0,3.51A5.78,5.78,0,0,1,567.22,518.66Z" transform="translate(-82.97 -444.93)"/></svg>