<svg width="267" height="44" viewBox="0 0 267 44" fill="none" xmlns="http://www.w3.org/2000/svg">
<g clip-path="url(#clip0_306_117)">
<path d="M30.7413 40.9881C30.7506 41.066 30.7454 41.1455 30.7261 41.2205C30.7068 41.2954 30.6738 41.3638 30.6298 41.4202C30.5858 41.4767 30.532 41.5197 30.4725 41.5459C30.4129 41.5721 30.3494 41.5808 30.2867 41.5713C29.8386 41.5713 29.1631 41.542 28.2604 41.4834C27.3608 41.4235 26.679 41.3956 26.2212 41.3956C25.7634 41.3956 25.152 41.4235 24.3005 41.4754C23.449 41.5274 22.7959 41.5513 22.3798 41.5513C22.034 41.5513 21.8644 41.3636 21.8644 40.9881C21.8644 39.3903 21.9166 36.9935 22.0212 33.7979C22.1258 30.6023 22.177 28.2055 22.1749 26.6077C22.1749 25.2762 22.1258 23.2709 22.0276 20.5919C21.9295 17.9129 21.8804 15.9156 21.8804 14.6001C21.8804 14.3125 22.0052 14.1687 22.2549 14.1687C22.7138 14.1687 23.4041 14.1953 24.3261 14.2486C25.248 14.3018 25.9438 14.3271 26.4133 14.3245C26.8529 14.3245 27.5092 14.2992 28.382 14.2486C29.2592 14.1966 29.909 14.1687 30.338 14.1687C30.6069 14.1687 30.7445 14.3245 30.7445 14.64C30.7445 15.9716 30.6944 17.9688 30.5941 20.6319C30.4938 23.2949 30.4447 25.2922 30.4468 26.6237C30.4468 28.2215 30.4991 30.6183 30.6037 33.8139C30.7082 37.0095 30.7541 39.4009 30.7413 40.9881ZM53.2202 14.652C53.2202 15.6267 53.1946 17.0967 53.1434 19.07C53.0922 21.0433 53.0633 22.5133 53.0633 23.488C53.0633 23.7543 52.6056 25.2496 51.69 27.9739C50.9473 30.1975 50.4138 31.7647 50.0894 32.6754C49.462 34.3798 48.7374 36.2333 47.9158 38.2359C47.6448 38.8457 47.2692 39.7631 46.789 40.9881C46.6641 41.3876 46.5073 41.5713 46.3216 41.5713C45.8606 41.5713 45.1756 41.5713 44.2568 41.5234C43.3381 41.4754 42.6562 41.4754 42.192 41.4754C41.8911 41.4754 41.4301 41.4874 40.8091 41.5114C40.1881 41.5393 39.7271 41.5513 39.4262 41.5513C39.2277 41.5513 39.0549 41.3636 38.9108 40.9881C38.1318 39.0867 37.0093 36.2186 35.5431 32.3838C33.791 27.4812 32.9149 24.7502 32.9149 24.191C32.9149 23.1657 32.9437 21.6212 33.0014 19.5573C33.059 17.4935 33.0878 15.9489 33.0878 14.9237C33.0878 14.4443 33.2062 14.2006 33.4463 14.2006C33.886 14.2006 34.5454 14.2273 35.4247 14.2805C36.304 14.3338 36.9634 14.3591 37.403 14.3564C37.8512 14.3564 38.5235 14.3271 39.4198 14.2685C40.3161 14.2126 40.982 14.1807 41.4205 14.1807C41.587 14.1807 41.6702 14.3205 41.6702 14.5801C41.6702 15.6853 41.6105 17.347 41.491 19.5653C41.3715 21.7836 41.3117 23.4454 41.3117 24.5505C41.3722 25.4278 41.5679 26.2823 41.8879 27.0671C42.208 27.866 42.5282 28.6849 42.8483 29.5038C43.2177 28.6281 43.5386 27.7219 43.8087 26.7915C44.1004 25.8723 44.315 24.9178 44.4489 23.9433C44.4489 23.2683 44.4745 22.2616 44.4969 20.9195C44.5695 16.9542 44.6058 14.913 44.6058 14.7958C44.6058 14.3964 44.6858 14.1687 44.8394 14.1687C45.2876 14.1687 45.9599 14.2006 46.8498 14.2566C47.7397 14.3125 48.4088 14.3444 48.8602 14.3444C49.3115 14.3444 49.9518 14.3205 50.8289 14.2685C51.706 14.2166 52.3591 14.1887 52.7976 14.1887C53.0761 14.1807 53.2042 14.3364 53.2042 14.652H53.2202ZM72.5907 33.73C72.5735 34.3679 72.506 35.0021 72.389 35.6234C72.2002 36.7419 72.0977 37.3731 72.0689 37.5129C71.9857 38.4116 71.8128 39.7298 71.5535 41.4754C71.5023 41.775 71.307 41.9228 70.9741 41.9228C70.8279 41.9173 70.6824 41.8972 70.5387 41.8629C68.1154 41.5109 65.6763 41.3548 63.2368 41.3956C62.4002 41.3956 61.1549 41.4222 59.501 41.4754C57.847 41.5287 56.606 41.554 55.778 41.5513C55.4354 41.5513 55.2626 41.3636 55.2626 40.9881C55.2626 39.5314 55.3255 37.3424 55.4514 34.4211C55.5774 31.4997 55.6392 29.312 55.6371 27.858C55.6371 26.3774 55.5806 23.6131 55.4674 19.5653C55.4354 18.5267 55.3778 16.9729 55.2946 14.9037V14.632C55.2722 14.3325 55.4034 14.1807 55.6851 14.1807C56.4982 14.1807 57.72 14.2073 59.3505 14.2606C60.981 14.3138 62.2081 14.3391 63.0319 14.3365C63.8578 14.3365 65.1042 14.3112 66.7709 14.2606C68.4377 14.21 69.6883 14.1833 70.5227 14.1807C70.7659 14.149 71.0096 14.2343 71.2041 14.4192C71.3986 14.604 71.5293 14.8744 71.5695 15.1753C71.6208 15.439 71.7264 16.5774 71.8897 18.6026C72.0529 20.6279 72.1233 21.7783 72.1233 22.0619C72.1233 22.3455 72.0145 22.4614 71.8032 22.4614C71.243 22.4614 70.3915 22.3895 69.2422 22.2457C68.093 22.1019 67.2511 22.034 66.6813 22.034C65.7529 22.034 65.2215 22.034 65.0807 22.0539C64.2676 22.1418 63.861 22.4174 63.861 22.8728C63.861 23.496 64.3476 23.8874 65.3144 24.0432C65.5865 24.0792 66.2523 24.0991 67.3183 24.0991C68.1586 24.1012 68.9985 24.0492 69.8345 23.9433C70.8973 23.8155 71.3294 23.7476 71.115 23.7476C71.3871 23.7476 71.5215 23.9394 71.5215 24.3148C71.5069 24.8776 71.4598 25.4383 71.3807 25.9926C71.2548 26.914 71.1875 27.4932 71.179 27.7302C71.0403 29.4718 70.972 30.7128 70.9741 31.4531C70.9741 31.7407 70.814 31.8845 70.4907 31.8845C70.5836 31.8845 70.1322 31.8046 69.1302 31.6488C67.8484 31.4699 66.5593 31.3859 65.2695 31.3972C64.3199 31.3972 63.845 31.7221 63.845 32.3718C63.8365 32.4958 63.8489 32.6207 63.8815 32.7384C63.914 32.856 63.9659 32.9638 64.0339 33.0549C64.3348 33.3665 65.9034 33.5223 68.7397 33.5223C69.1238 33.5223 69.7 33.4824 70.4683 33.3945C71.2366 33.3066 71.8096 33.2706 72.1938 33.2706C72.4467 33.2626 72.5747 33.4184 72.5747 33.73H72.5907ZM92.5887 36.2066C91.2954 32.9311 90.6487 31.2148 90.6487 31.0576C90.6487 30.8499 90.7736 30.6342 91.0233 30.4145C92.1928 29.3706 92.9984 28.2774 93.4402 27.135C93.882 25.9926 94.1028 24.4839 94.1028 22.6092C94.1028 19.7224 93.1809 17.5188 91.337 15.9982C89.7535 14.7066 87.742 14.0622 85.3027 14.0648C84.1567 14.0648 82.4366 14.0848 80.1424 14.1247C77.8482 14.1647 76.1334 14.1833 74.998 14.1807H74.4058C74.3609 14.1801 74.3164 14.1921 74.2757 14.2158C74.235 14.2395 74.199 14.2742 74.1704 14.3175C74.1419 14.3608 74.1215 14.4115 74.1107 14.466C74.0999 14.5204 74.099 14.5771 74.1081 14.632L74.1241 14.9037C74.4143 19.8223 74.5605 24.1404 74.5627 27.858C74.5627 29.3174 74.4997 31.505 74.3738 34.4211C74.2479 37.3371 74.1849 39.5261 74.1849 40.9881C74.1849 41.3636 74.3578 41.5513 74.7035 41.5513C75.0973 41.5513 75.6959 41.5274 76.493 41.4754C77.2901 41.4235 77.8855 41.3956 78.2825 41.3956C79.6403 41.3668 80.9982 41.4456 82.348 41.6312C82.4769 41.6623 82.6074 41.6809 82.7385 41.6871C82.9466 41.6871 83.0587 41.5394 83.0587 41.2398C83.0587 40.4089 82.9914 39.1067 82.8506 37.3371C82.7097 35.5675 82.6393 34.2453 82.6393 33.3425C82.6393 32.9151 82.6841 32.6994 82.7802 32.6994C82.8762 32.6994 83.0395 32.979 83.1867 33.5383C83.827 35.7113 84.3167 37.3304 84.6561 38.3956C85.0082 39.594 85.2963 40.4648 85.4692 41.048C85.5297 41.2113 85.6302 41.3465 85.7562 41.434C85.8821 41.5216 86.0271 41.5571 86.1702 41.5354C86.5971 41.5354 87.2373 41.5101 88.091 41.4595C88.9446 41.4089 89.5934 41.3822 90.0373 41.3796C90.4812 41.3796 91.1556 41.4062 92.0605 41.4595C92.9653 41.5127 93.6451 41.538 94.0996 41.5354C94.3813 41.5354 94.5222 41.4635 94.5222 41.3237C94.5222 41.1838 93.8627 39.4862 92.5727 36.2066H92.5887ZM82.7289 26.8234C82.2007 26.8234 81.9382 26.7036 81.9382 26.4599C81.9382 26.2163 81.9382 25.8607 81.8998 25.3774C81.8614 24.8941 81.8614 24.5345 81.8614 24.2949C81.8614 22.2869 82.125 21.283 82.6521 21.283C84.7863 21.283 85.8533 22.1897 85.8533 24.0033C85.8448 25.886 84.798 26.8261 82.7129 26.8234H82.7289ZM18.4839 36.2066C17.1906 32.9311 16.544 31.2148 16.544 31.0576C16.544 30.8499 16.6688 30.6342 16.9185 30.4145C18.088 29.3706 18.8936 28.2774 19.3354 27.135C19.7772 25.9926 19.9981 24.4839 19.9981 22.6092C19.9981 19.7211 19.1946 17.62 17.3507 16.0981C17.3283 16.0781 16.051 17.7478 14.5784 17.8597C15.7405 16.7172 17.7156 14.3644 18.3334 12.9104C18.9798 11.5077 19.2067 9.86445 18.9737 8.27273C18.9088 7.87695 18.8222 7.48722 18.7144 7.10631L18.3943 5.872C18.3238 5.57241 18.2502 5.27281 18.183 4.96922L16.608 0L16.7776 0.862825C16.7776 0.862825 17.6932 6.95452 14.2967 9.67481C12.4976 11.1168 12.1039 12.8185 12.1295 14.0968C11.835 14.0768 11.5309 14.0648 11.2203 14.0648C10.2408 14.0648 8.84078 14.0795 7.02036 14.1088C7.05237 12.8265 6.66182 11.1208 4.85314 9.67481C1.45986 6.95452 2.37541 0.862825 2.37541 0.862825L2.54507 0L0.419467 6.70286C-0.582511 9.87054 0.589132 12.3951 1.50788 14.1807C1.50788 14.1807 3.4286 16.9529 4.06885 17.6919C2.46824 17.8037 0.867636 14.4962 0.646753 14.1807H0.326632C0.281702 14.1801 0.237241 14.1921 0.196514 14.2158C0.155787 14.2395 0.11983 14.2742 0.0912769 14.3175C0.062724 14.3608 0.042301 14.4115 0.0315107 14.466C0.0207204 14.5204 0.0198351 14.5771 0.0289194 14.632V14.9037C0.319162 19.8223 0.465352 24.1404 0.467486 27.858C0.467486 29.3174 0.404527 31.505 0.278613 34.4211C0.152699 37.3371 0.0897431 39.5261 0.0897431 40.9881C0.0897431 41.3636 0.262609 41.5513 0.60834 41.5513C1.00209 41.5513 1.60071 41.5274 2.39781 41.4754C3.19492 41.4235 3.79034 41.3956 4.18729 41.3956C5.5451 41.3668 6.903 41.4456 8.25283 41.6312C8.38168 41.6623 8.51224 41.6809 8.64337 41.6871C8.85145 41.6871 8.96349 41.5394 8.96349 41.2398C8.96349 40.4089 8.89627 39.1067 8.75541 37.3371C8.61456 35.5675 8.54414 34.2453 8.54414 33.3425C8.54414 32.9151 8.58895 32.6994 8.68499 32.6994C8.78102 32.6994 8.94429 32.979 9.09154 33.5383C9.73178 35.7113 10.2216 37.3304 10.5609 38.3956C10.913 39.594 11.1851 40.4648 11.374 41.048C11.4346 41.2113 11.535 41.3465 11.661 41.434C11.787 41.5216 11.9319 41.5571 12.0751 41.5354C12.5019 41.5354 13.1421 41.5101 13.9958 41.4595C14.8495 41.4089 15.4993 41.3822 15.9453 41.3796C16.3892 41.3796 17.0636 41.4062 17.9685 41.4595C18.8734 41.5127 19.5531 41.538 20.0077 41.5354C20.2894 41.5354 20.4302 41.4635 20.4302 41.3237C20.4302 41.1838 19.774 39.4862 18.4839 36.2066ZM8.82584 26.8234C8.29764 26.8234 8.03514 26.7036 8.03514 26.4599C8.03514 26.2163 8.03514 25.8607 7.99673 25.3774C7.95831 24.8941 7.95831 24.5345 7.95831 24.2949C7.95831 22.2869 8.22188 21.283 8.74901 21.283C10.8832 21.283 11.9502 22.1897 11.9502 24.0033C11.9502 25.886 10.9088 26.8261 8.82584 26.8234Z" fill="url(#paint0_linear_306_117)"/>
<path d="M130.721 41.044C130.721 41.4195 130.548 41.6072 130.206 41.6072C129.799 41.6072 129.185 41.5833 128.368 41.5313C127.552 41.4794 126.931 41.4514 126.515 41.4514C126.099 41.4514 125.491 41.4794 124.661 41.5313C123.832 41.5833 123.218 41.6072 122.811 41.6072C122.491 41.6072 122.325 41.3676 122.325 40.8842C122.325 40.0134 122.357 38.6992 122.421 36.9336C122.485 35.168 122.513 33.8578 122.513 32.987C122.513 32.5875 122.481 32.4198 122.421 32.4198C122.222 32.4198 121.557 34.0589 120.426 37.3371C119.295 40.6153 118.625 42.253 118.416 42.2504C118.126 42.2504 117.438 40.6126 116.354 37.3371C115.27 34.0615 114.624 32.4224 114.414 32.4198C114.354 32.4198 114.322 32.6075 114.322 32.987C114.322 33.8578 114.352 35.1733 114.414 36.9336C114.478 38.6992 114.507 40.0134 114.507 40.8842C114.507 41.3676 114.354 41.6072 114.04 41.6072C113.624 41.6072 113.004 41.5819 112.18 41.5313C111.354 41.4794 110.736 41.4514 110.32 41.4514C109.904 41.4514 109.299 41.4794 108.483 41.5313C107.666 41.5833 107.052 41.6072 106.645 41.6072C106.299 41.6072 106.13 41.4195 106.13 41.044C106.13 39.6273 106.182 37.4968 106.286 34.6527C106.391 31.8086 106.442 29.6782 106.44 28.2614C106.44 26.7515 106.391 24.4879 106.293 21.4707C106.195 18.4535 106.146 16.1899 106.146 14.6799C106.146 14.3923 106.379 14.2485 106.847 14.2485C107.192 14.2485 107.708 14.2286 108.396 14.1926C109.084 14.1567 109.6 14.1327 109.942 14.1327C110.533 14.1145 111.123 14.0585 111.709 13.9649C112.503 13.8571 113.092 13.8011 113.476 13.8011C113.569 13.8011 113.758 14.0888 114.04 14.66C115.175 16.9475 116.39 19.5946 117.683 22.6011C118.142 23.6664 118.407 24.199 118.48 24.199C118.638 24.199 118.888 23.705 119.229 22.717C119.717 21.3553 120.27 20.032 120.887 18.7544C121.954 16.5334 122.564 15.2458 122.715 14.8917C122.955 14.3364 123.17 14.0528 123.355 14.0528C123.739 14.0528 124.316 14.0808 125.119 14.1327C125.923 14.1846 126.505 14.2126 126.902 14.2126C127.299 14.2126 127.863 14.1686 128.615 14.0848C129.367 14.0009 129.94 13.9569 130.328 13.9569C130.577 13.9569 130.702 14.1047 130.702 14.4043C130.702 15.9422 130.651 18.2471 130.545 21.3309C130.44 24.4147 130.388 26.7275 130.388 28.2774C130.388 29.6941 130.444 31.8246 130.555 34.6687C130.666 37.5128 130.721 39.6379 130.721 41.044Z" fill="url(#paint1_linear_306_117)"/>
<path d="M180.238 14.7639C180.238 16.2472 180.18 18.4815 180.065 21.4667C179.95 24.452 179.901 26.6916 179.918 28.1856L179.886 41.1599C179.886 41.4595 179.703 41.6073 179.338 41.6073C178.973 41.6073 178.48 41.5833 177.798 41.5314C177.117 41.4795 176.604 41.4515 176.259 41.4515C175.913 41.4515 175.369 41.4795 174.658 41.5314C173.947 41.5833 173.397 41.6073 173.032 41.6073C172.856 41.6073 172.641 41.3916 172.392 40.9641C168.593 34.445 166.538 31.1855 166.226 31.1855C166.079 31.1855 166.005 31.3772 166.005 31.7527C166.005 32.7673 166.037 34.2919 166.101 36.3265C166.162 38.3637 166.194 39.8856 166.194 40.9002C166.194 41.3836 166.031 41.6233 165.711 41.6233C165.333 41.6233 164.769 41.5993 164.014 41.5474C163.258 41.4954 162.692 41.4675 162.317 41.4675C161.943 41.4675 161.299 41.4954 160.48 41.5474C159.66 41.5993 159.049 41.6233 158.642 41.6233C158.3 41.6233 158.127 41.4355 158.127 41.06C158.127 39.6433 158.179 37.5128 158.284 34.6687C158.388 31.8246 158.441 29.6942 158.441 28.2774C158.441 26.7941 158.391 24.5732 158.29 21.6145C158.19 18.6559 158.143 16.4376 158.149 14.9596C158.149 14.672 158.364 14.5322 158.79 14.5322C159.215 14.5322 160.275 14.4204 161.837 14.2007C162.051 14.1714 162.609 14.0595 163.511 13.8651C164.058 13.7287 164.613 13.6512 165.17 13.6334C165.314 13.6334 165.528 13.913 165.81 14.4723C165.987 14.8238 166.826 16.3124 168.326 18.9382C169.128 20.4082 170.395 22.5386 172.126 25.3295C172.228 25.2376 172.283 24.8182 172.283 24.0632C172.283 23.0619 172.214 21.5493 172.078 19.5254C171.941 17.5015 171.874 15.9902 171.876 14.9916C171.876 14.4843 171.979 14.2286 172.196 14.2286C172.612 14.2286 173.238 14.2486 174.072 14.2885C174.907 14.3285 175.532 14.3485 175.948 14.3485C176.396 14.3485 177.069 14.3285 177.965 14.2885C178.861 14.2486 179.533 14.2286 179.982 14.2286C180.154 14.2366 180.238 14.4084 180.238 14.7639Z" fill="url(#paint2_linear_306_117)"/>
<path d="M195.572 21.1632C195.151 21.6051 194.704 22.0058 194.233 22.3616C193.344 23.1165 192.895 23.9074 192.895 24.7583C192.895 25.3415 193.297 26.4893 194.099 28.2016C194.901 29.9139 195.304 31.4518 195.306 32.8153C195.33 34.3772 195.005 35.9167 194.368 37.2612C193.708 38.6274 192.467 39.9735 190.645 41.2997C189.115 42.4062 189.124 42.6699 187.572 43.2451C187.434 43.281 185.779 43.8762 185.705 43.8762C185.581 43.8762 182.082 44.1598 181.97 43.8762C181.886 43.6805 181.97 43.8762 181.97 39.5102C181.97 36.7579 181.97 35.6674 181.97 35.6434C181.97 35.5516 182.312 35.244 183 34.7447C183.69 34.2705 184.334 33.701 184.921 33.047C185.61 32.2161 185.954 31.3453 185.952 30.4345C185.929 29.5459 185.689 28.6872 185.264 27.9739C184.41 26.4666 183.983 25.6997 183.983 25.673C183.509 24.5356 183.273 23.2677 183.295 21.9861C183.295 19.5707 184.212 17.5734 186.045 15.9942C187.677 14.6407 189.541 13.7854 191.487 13.4976C191.871 13.4337 192.034 13.3978 191.97 13.3978C192.025 13.3978 196.1 13.1142 196.193 13.3978C196.654 14.8039 195.552 21.1832 195.52 21.0074C195.547 21.0532 195.565 21.1068 195.572 21.1632Z" fill="url(#paint3_linear_306_117)"/>
<path d="M213.892 22.1378C213.892 22.3974 213.777 22.5373 213.549 22.5373C213.81 22.5373 212.507 22.44 209.641 22.2456C209.598 24.5332 209.577 26.0085 209.577 26.6716C209.577 28.2694 209.632 30.6662 209.743 33.8618C209.854 37.0575 209.909 39.4542 209.906 41.052C209.915 41.1315 209.909 41.2123 209.888 41.2882C209.867 41.3641 209.833 41.433 209.787 41.4894C209.742 41.5459 209.686 41.5885 209.625 41.6138C209.564 41.6391 209.5 41.6464 209.436 41.6352C209.001 41.6352 208.331 41.6072 207.435 41.5473C206.539 41.4874 205.867 41.4594 205.418 41.4594C204.97 41.4594 204.352 41.4874 203.498 41.5393C202.643 41.5913 201.999 41.6152 201.577 41.6152C201.231 41.6152 201.062 41.4275 201.062 41.052C201.062 39.4542 201.116 37.0575 201.225 33.8618C201.334 30.6662 201.388 28.2694 201.388 26.6716C201.388 26.0352 201.368 24.5984 201.327 22.3615C200.41 22.4361 199.033 22.5785 197.198 22.7889C197.031 22.701 196.948 22.6411 196.948 22.6132C196.948 22.4733 197.038 21.8142 197.214 20.6159C197.412 19.3296 197.519 18.576 197.534 18.355C197.566 17.1566 197.668 15.7185 197.854 14.0408C197.883 13.937 197.963 13.8851 198.088 13.8851C198.171 13.8928 198.255 13.9061 198.337 13.925C200.89 14.2401 203.455 14.3841 206.02 14.3564C206.949 14.3564 208.689 14.2059 211.241 13.905C212.522 13.7506 213.205 13.6733 213.29 13.6733C213.61 13.6733 213.758 13.7692 213.758 13.9649C213.758 14.4323 213.732 15.1393 213.681 16.0821C213.629 17.0248 213.601 17.7278 213.601 18.1992C213.616 18.8585 213.663 19.5162 213.742 20.1685C213.825 20.8203 213.875 21.4781 213.892 22.1378Z" fill="url(#paint4_linear_306_117)"/>
<path d="M232.763 33.786C232.746 34.4228 232.678 35.0558 232.558 35.6754C232.372 36.7978 232.267 37.425 232.238 37.5688C232.155 38.4676 231.982 39.7858 231.723 41.5314C231.668 41.827 231.476 41.9788 231.143 41.9788C230.996 41.9733 230.849 41.9532 230.705 41.9189C228.281 41.5666 225.842 41.4105 223.403 41.4515C222.57 41.4515 221.325 41.4781 219.667 41.5314C218.012 41.5833 216.77 41.6073 215.947 41.6073C215.605 41.6073 215.432 41.4195 215.432 41.044C215.432 39.5847 215.494 37.3957 215.617 34.477C215.741 31.5583 215.804 29.3706 215.806 27.914C215.806 26.4333 215.749 23.6691 215.633 19.6213C215.603 18.5827 215.547 17.0288 215.464 14.9596L215.448 14.688C215.425 14.3884 215.556 14.2366 215.838 14.2366C216.651 14.2366 217.871 14.2646 219.504 14.3165C221.136 14.3684 222.362 14.3924 223.185 14.3924C224.008 14.3924 225.253 14.3684 226.921 14.3165C228.589 14.2646 229.84 14.2366 230.673 14.2366C230.916 14.2039 231.161 14.2887 231.356 14.4736C231.551 14.6585 231.682 14.9296 231.723 15.2312C231.774 15.4949 231.876 16.6333 232.043 18.6546C232.209 20.6758 232.28 21.8502 232.28 22.1179C232.28 22.3855 232.168 22.5173 231.959 22.5173C231.396 22.5173 230.542 22.4454 229.399 22.3016C228.262 22.1578 227.407 22.0899 226.838 22.0899C225.909 22.0899 225.378 22.0899 225.237 22.0899C224.424 22.1818 224.017 22.4574 224.017 22.9128C224.017 23.5359 224.501 23.9234 225.471 24.0832C225.742 24.1178 226.409 24.1364 227.471 24.1391C228.313 24.1413 229.154 24.0893 229.991 23.9833C231.054 23.8555 231.486 23.7876 231.271 23.7876C231.543 23.7876 231.678 23.9793 231.678 24.3548C231.662 24.9174 231.614 25.4779 231.537 26.0325C231.412 26.9553 231.345 27.5345 231.332 27.7702C231.198 29.5118 231.13 30.7528 231.13 31.4931C231.13 31.7807 230.967 31.9245 230.647 31.9245C230.74 31.9245 230.285 31.8446 229.286 31.6888C228.004 31.5098 226.713 31.4258 225.423 31.4372C224.475 31.4372 224.001 31.762 224.001 32.4118C223.992 32.5359 224.004 32.661 224.037 32.7788C224.069 32.8966 224.121 33.0044 224.19 33.0949C224.491 33.4065 226.06 33.5623 228.896 33.5623C229.28 33.5623 229.856 33.5223 230.621 33.4344C231.386 33.3465 231.963 33.3106 232.35 33.3106C232.632 33.3186 232.763 33.4744 232.763 33.786Z" fill="url(#paint5_linear_306_117)"/>
<path d="M266.971 30.5823C266.91 29.9302 266.762 29.2956 266.533 28.7048C266.491 28.601 266.44 28.5011 266.392 28.4013C266.38 28.5208 266.363 28.6394 266.341 28.7568C266.208 29.4485 265.926 30.0815 265.524 30.5863C264.759 31.5649 263.844 32.0882 263.031 32.6954C262.624 32.98 262.232 33.2976 261.859 33.6461C261.679 33.8208 261.508 34.0089 261.347 34.2093C261.183 34.4171 261.027 34.6328 260.883 34.8565C260.62 35.227 260.443 35.68 260.37 36.1667C260.329 36.4643 260.345 36.7699 260.416 37.0585C260.488 37.3472 260.612 37.6109 260.78 37.8284C260.725 37.8647 260.664 37.885 260.602 37.8878C260.54 37.8907 260.478 37.876 260.421 37.8449C260.365 37.8138 260.314 37.7671 260.273 37.7082C260.233 37.6493 260.204 37.5798 260.188 37.5048C259.925 37.5648 259.778 37.6367 259.528 37.6766C257.741 37.9552 255.93 37.4945 254.373 36.3653C252.816 35.2361 251.598 33.5006 250.908 31.4251C250.876 31.3253 250.85 31.2454 250.837 31.1935C250.824 31.1415 250.837 31.1295 250.837 31.1136C250.837 30.9058 250.962 30.6901 251.212 30.4704C252.377 29.4292 253.181 28.336 253.625 27.1909C254.069 26.0458 254.291 24.5372 254.291 22.6651C254.291 19.7757 253.369 17.5707 251.525 16.0501C249.942 14.7638 247.929 14.1207 245.488 14.1207C244.342 14.1207 242.623 14.1407 240.331 14.1806C238.039 14.2206 236.324 14.2392 235.186 14.2366H234.591C234.546 14.2366 234.502 14.249 234.462 14.273C234.422 14.2969 234.386 14.3318 234.358 14.375C234.33 14.4182 234.31 14.4687 234.299 14.5228C234.288 14.577 234.287 14.6334 234.296 14.688V14.9596C234.587 19.8782 234.732 24.1963 234.732 27.9139C234.732 29.3679 234.67 31.5556 234.546 34.477C234.422 37.3983 234.359 39.5873 234.357 41.044C234.357 41.4195 234.53 41.6073 234.873 41.6073C235.27 41.6073 235.865 41.5833 236.662 41.5314C237.459 41.4794 238.058 41.4515 238.455 41.4515C239.812 41.4227 241.168 41.5014 242.517 41.6871C242.646 41.7156 242.777 41.7343 242.908 41.7431C243.119 41.7431 243.228 41.5953 243.228 41.2957C243.228 40.4648 243.157 39.1639 243.017 37.393C242.876 35.6274 242.805 34.2972 242.805 33.3984C242.805 32.971 242.853 32.7553 242.946 32.7553C243.039 32.7553 243.209 33.0349 243.353 33.5942C243.993 35.7672 244.483 37.3863 244.822 38.4515C245.177 39.6499 245.462 40.5207 245.635 41.1039C245.697 41.2668 245.798 41.4013 245.925 41.4887C246.051 41.5761 246.196 41.612 246.339 41.5913C246.768 41.5913 247.393 41.6951 248.26 41.6432C249.128 41.5913 249.947 41.6792 250.383 41.6792C250.818 41.6792 251.663 41.6032 251.983 41.6112C255.453 41.7151 258.475 40.9282 261.395 38.0481C265.019 37.2492 266.152 34.6288 266.456 33.6541C266.542 33.3745 266.635 33.0988 266.731 32.8272C266.92 32.2694 267.02 31.6711 267.026 31.0656C266.99 30.9058 266.99 30.7421 266.971 30.5823ZM243.103 26.8793C242.575 26.8793 242.309 26.7595 242.309 26.5158C242.309 26.2722 242.309 25.9166 242.271 25.4333C242.232 24.95 242.232 24.5905 242.232 24.3508C242.232 22.3535 242.498 21.3389 243.023 21.3389C245.157 21.3389 246.224 22.2457 246.224 24.0592C246.226 25.9419 245.186 26.882 243.103 26.8793Z" fill="url(#paint6_linear_306_117)"/>
<path d="M144.384 13.0382C142.097 13.0374 139.861 13.883 137.959 15.4679C136.057 17.0528 134.575 19.3059 133.699 21.9423C132.824 24.5786 132.594 27.4798 133.04 30.2789C133.486 33.078 134.587 35.6493 136.204 37.6675C137.821 39.6857 139.881 41.0603 142.124 41.6173C144.367 42.1744 146.692 41.8889 148.805 40.7969C150.918 39.705 152.724 37.8557 153.995 35.4829C155.265 33.1101 155.944 30.3204 155.944 27.4665C155.944 23.6406 154.726 19.9713 152.558 17.2656C150.39 14.5599 147.45 13.0393 144.384 13.0382ZM149.913 28.3174C149.745 28.367 149.571 28.367 149.404 28.3174C149.255 28.2827 149.113 28.2179 148.981 28.1256C148.768 27.9798 148.574 27.7954 148.405 27.5784C148.314 27.4709 148.228 27.3561 148.149 27.2348C148.149 27.3027 148.149 27.3747 148.149 27.4466C148.151 28.524 147.857 29.5699 147.317 30.4107C146.777 31.2514 146.023 31.8364 145.18 32.0684C144.337 32.3005 143.455 32.1657 142.682 31.6865C141.909 31.2073 141.29 30.4124 140.928 29.4339C140.567 28.4553 140.485 27.352 140.695 26.307C140.906 25.262 141.396 24.3383 142.085 23.6892C142.774 23.0401 143.621 22.7046 144.484 22.7385C145.347 22.7723 146.175 23.1735 146.83 23.8754L146.811 23.7716L147.044 24.0472C147.326 24.3827 147.592 24.7183 147.848 25.0458C148.024 25.2775 148.194 25.4932 148.363 25.7009C148.587 25.9851 148.824 26.2519 149.074 26.4998C149.155 26.5788 149.242 26.6483 149.333 26.7076L149.378 26.7435H149.394H149.413V26.7036L149.445 26.6437C149.503 26.5323 149.55 26.413 149.586 26.2881C149.674 25.9633 149.731 25.6268 149.756 25.2855C149.797 24.8181 149.81 24.3228 149.826 23.7995V23.7596L149.845 23.1524V22.7969L149.999 23.0925C150.161 23.4004 150.299 23.7267 150.412 24.0672C150.562 24.5063 150.67 24.9663 150.732 25.4373C150.804 25.9205 150.804 26.4161 150.732 26.8993C150.689 27.1587 150.613 27.408 150.508 27.6383C150.391 27.9514 150.181 28.1952 149.922 28.3174H149.913ZM155.009 29.4518C154.949 29.5999 154.866 29.7316 154.765 29.8393C154.664 29.9469 154.546 30.0284 154.42 30.079C154.261 30.1333 154.095 30.1415 153.933 30.1029C153.842 30.0752 153.753 30.0364 153.668 29.9871C153.735 30.2317 153.785 30.4829 153.818 30.7381C153.877 31.1341 153.877 31.5404 153.818 31.9364C153.782 32.1491 153.72 32.3538 153.636 32.5436C153.529 32.8021 153.345 32.9975 153.123 33.0869C153.046 33.1146 152.967 33.1281 152.886 33.1268C152.826 33.1329 152.765 33.1329 152.704 33.1268C152.581 33.0962 152.462 33.0423 152.352 32.967C152.176 32.8449 152.015 32.6915 151.875 32.5117C151.639 32.2155 151.434 31.8841 151.263 31.525C150.993 30.9735 150.785 30.378 150.646 29.7554L150.559 29.3559L150.799 29.6436C151.011 29.8952 151.212 30.1509 151.404 30.3985L151.427 30.4305C151.571 30.6102 151.708 30.79 151.849 30.9618C152.034 31.1997 152.231 31.4225 152.438 31.6288C152.51 31.7023 152.588 31.764 152.672 31.8126H152.698H152.717V31.7846L152.733 31.7487C152.785 31.6516 152.827 31.547 152.858 31.4371C152.931 31.1681 152.978 30.8892 152.999 30.6062C153.027 30.2587 153.04 29.8952 153.056 29.4598L153.037 29.4358L152.989 29.3799C152.715 29.0388 152.477 28.6548 152.281 28.2375C151.958 27.582 151.712 26.8716 151.552 26.1284L151.472 25.7289L151.705 26.0045C151.971 26.3201 152.217 26.6357 152.458 26.9432C152.624 27.155 152.778 27.3427 152.947 27.5584C153.159 27.8342 153.386 28.0917 153.626 28.3293C153.701 28.4051 153.783 28.4707 153.869 28.5251L153.917 28.565H153.94V28.5251L153.969 28.4692C154.024 28.363 154.069 28.249 154.103 28.1296C154.187 27.8194 154.241 27.4974 154.263 27.1709C154.305 26.7235 154.317 26.2522 154.333 25.7529V25.7089C154.333 25.5252 154.333 25.3374 154.353 25.1417V24.7862L154.51 25.0858C154.661 25.3769 154.79 25.6844 154.897 26.0045C155.039 26.4251 155.141 26.8648 155.201 27.3147C155.27 27.7781 155.27 28.2534 155.201 28.7168C155.174 28.9728 155.112 29.2213 155.018 29.4518H155.009Z" fill="url(#paint7_linear_306_117)"/>
</g>
<defs>
<linearGradient id="paint0_linear_306_117" x1="47.2563" y1="41.9228" x2="47.2563" y2="0" gradientUnits="userSpaceOnUse">
<stop offset="0.03" stop-color="#398B4B"/>
<stop offset="1" stop-color="#2ECC2E"/>
</linearGradient>
<linearGradient id="paint1_linear_306_117" x1="118.425" y1="42.2504" x2="118.425" y2="13.7892" gradientUnits="userSpaceOnUse">
<stop offset="0.03" stop-color="#398B4B"/>
<stop offset="1" stop-color="#2ECC2E"/>
</linearGradient>
<linearGradient id="paint2_linear_306_117" x1="169.187" y1="41.6073" x2="169.187" y2="13.6334" gradientUnits="userSpaceOnUse">
<stop offset="0.03" stop-color="#398B4B"/>
<stop offset="1" stop-color="#2ECC2E"/>
</linearGradient>
<linearGradient id="paint3_linear_306_117" x1="189.121" y1="43.9961" x2="189.121" y2="13.254" gradientUnits="userSpaceOnUse">
<stop offset="0.03" stop-color="#398B4B"/>
<stop offset="1" stop-color="#2ECC2E"/>
</linearGradient>
<linearGradient id="paint4_linear_306_117" x1="205.418" y1="41.6272" x2="205.418" y2="13.6733" gradientUnits="userSpaceOnUse">
<stop offset="0.03" stop-color="#398B4B"/>
<stop offset="1" stop-color="#2ECC2E"/>
</linearGradient>
<linearGradient id="paint5_linear_306_117" x1="224.101" y1="41.9788" x2="224.101" y2="14.2366" gradientUnits="userSpaceOnUse">
<stop offset="0.03" stop-color="#398B4B"/>
<stop offset="1" stop-color="#2ECC2E"/>
</linearGradient>
<linearGradient id="paint6_linear_306_117" x1="250.639" y1="41.7431" x2="250.639" y2="14.1207" gradientUnits="userSpaceOnUse">
<stop offset="0.03" stop-color="#398B4B"/>
<stop offset="1" stop-color="#2ECC2E"/>
</linearGradient>
<linearGradient id="paint7_linear_306_117" x1="144.394" y1="41.8909" x2="144.394" y2="13.0382" gradientUnits="userSpaceOnUse">
<stop offset="0.03" stop-color="#398B4B"/>
<stop offset="1" stop-color="#2ECC2E"/>
</linearGradient>
<clipPath id="clip0_306_117">
<rect width="267" height="44" fill="white"/>
</clipPath>
</defs>
</svg>
